<?xml version="1.0" encoding="utf-8"?>
<!-- Generator: Adobe Illustrator 21.0.0, SVG Export Plug-In . SVG Version: 6.00 Build 0)  -->
<svg version="1.1" id="图层_1" xmlns="http://www.w3.org/2000/svg" xmlns:xlink="http://www.w3.org/1999/xlink" x="0px" y="0px"
	 viewBox="0 0 200 200" style="enable-background:new 0 0 200 200;" xml:space="preserve">
<style type="text/css">
	.st0{fill:#7A9EFD;}
	.st1{fill:#E4ECF9;}
	.st2{fill:#396BEE;}
	.st3{fill:#4094FF;}
	.st4{fill:#2828CE;}
	.st5{fill:#ACC5EA;}
	.st6{fill:#FFFFFF;}
	.st7{fill:#A8871E;}
	.st8{fill:#A3831D;}
	.st9{fill:#9E7F1D;}
	.st10{fill:#856B18;}
	.st11{fill:#C68620;}
	.st12{fill:#FFCD2E;}
	.st13{fill:#E8CFAC;}
	.st14{fill:#808080;}
</style>
<path class="st0" d="M176.9,111.1c-0.2,2.1-2.2,3.2-3.9,4.2c-1.6,0.9-3.1,1.8-4.7,2.7c-2.5,1.4-5,2.9-7.5,4.3
	c-3.1,1.8-6.2,3.6-9.4,5.4c-3.4,2-6.9,4-10.3,6c-3.5,2-6.9,4-10.4,6c-3.2,1.9-6.3,3.7-9.5,5.5c-2.6,1.5-5.2,3-7.8,4.5
	c-1.7,1-3.4,2-5.1,2.9c-1.3,0.7-2.5,1.5-4,1.9c-3.8,1.1-8,0.7-11.5-1.3c-1.2-0.7-2.5-1.4-3.7-2.1c-2.3-1.3-4.5-2.6-6.8-3.9
	c-3-1.7-5.9-3.4-8.9-5.1c-3.4-2-6.8-3.9-10.2-5.9c-3.5-2-7-4-10.5-6.1c-3.3-1.9-6.6-3.8-9.9-5.7l-8.4-4.9c-2-1.2-4-2.3-6.1-3.5
	c-0.9-0.5-1.8-1.1-2.8-1.6c-1.4-0.8-2.9-2.2-2.9-4c0,1.6,0,3.3,0,4.9c0,0.6,0,1.2,0,1.8c0.1,1.6,1.4,2.8,2.7,3.6
	c0.8,0.5,1.6,0.9,2.4,1.4c2.1,1.2,4.2,2.4,6.3,3.7c3,1.8,6.1,3.5,9.1,5.3c3.6,2.1,7.2,4.2,10.9,6.3c3.8,2.2,7.5,4.4,11.3,6.5
	c3.6,2.1,7.2,4.1,10.8,6.2c3,1.7,6,3.4,8.9,5.2c2,1.2,4,2.3,6.1,3.5c1.2,0.7,2.3,1.4,3.6,1.9c4,1.4,8.6,1.1,12.3-1
	c1.4-0.8,2.8-1.6,4.2-2.4c2.6-1.5,5.1-3,7.7-4.5c3.3-1.9,6.7-3.9,10-5.8c3.7-2.2,7.5-4.3,11.2-6.5l11.2-6.5c3.3-2,6.7-3.9,10-5.8
	c2.6-1.5,5.2-3,7.8-4.5c1.4-0.8,2.9-1.7,4.3-2.5c0.4-0.3,0.9-0.5,1.3-0.8c1.1-0.8,2-2,2-3.4c0-0.7,0-1.4,0-2.1c0-1.4,0-2.9,0-4.3
	C176.9,110.9,176.9,111,176.9,111.1C176.9,111.1,176.9,111,176.9,111.1L176.9,111.1z"/>
<path class="st1" d="M174.1,106.9c3.7,2.1,3.7,5.6,0,7.8l-67.3,39.1c-3.7,2.1-9.7,2.1-13.4,0l-67.7-39.1c-3.7-2.1-3.7-5.6,0-7.8
	l67.3-39.1c3.7-2.1,9.7-2.1,13.4,0L174.1,106.9z"/>
<path class="st2" d="M118.8,38.1C118.8,38.1,118.8,38.1,118.8,38.1c-0.1,0-0.1-0.1-0.2-0.1h0c0,0,0,0,0,0c0,0,0,0-0.1,0
	c0,0-0.1,0-0.1,0c0,0,0,0,0,0h0c-0.1,0-0.1,0-0.2,0h-0.4c0,0,0,0-0.1,0c0,0-0.1,0-0.1,0c0,0,0,0-0.1,0c0,0,0,0-0.1,0
	c-0.1,0-0.1,0-0.2,0.1c0,0,0,0-0.1,0c0,0,0,0,0,0c-0.1,0-0.2,0.1-0.3,0.2L57.2,72.8c-0.1,0.1-0.3,0.2-0.4,0.3c0,0,0,0-0.1,0.1
	c-0.1,0.1-0.3,0.2-0.4,0.3c0,0,0,0,0,0l-0.1,0.1c-0.1,0.1-0.1,0.1-0.2,0.2L56,73.8c0,0,0,0,0,0.1c0,0-0.1,0.1-0.1,0.1
	c0,0,0,0.1-0.1,0.1c0,0,0,0.1-0.1,0.1c0,0-0.1,0.1-0.1,0.1l-0.1,0.1c0,0-0.1,0.1-0.1,0.1c0,0,0,0.1-0.1,0.1c0,0,0,0,0,0
	c0,0.1-0.1,0.2-0.1,0.2v0c0,0,0,0,0,0c0,0.1-0.1,0.1-0.1,0.2c0,0,0,0.1,0,0.1c0,0,0,0.1,0,0.1s0,0,0,0.1c0,0.1-0.1,0.1-0.1,0.2
	c0,0,0,0,0,0v0c0,0.1-0.1,0.2-0.1,0.2c0,0,0,0,0,0s0,0.1,0,0.1c0,0,0,0.1,0,0.1c0,0,0,0.1,0,0.1c0,0,0,0.1,0,0.1c0,0,0,0,0,0.1
	c0,0,0,0.1,0,0.1c0,0,0,0.1,0,0.1c0,0,0,0,0,0.1c0,0,0,0.1,0,0.1c0,0.1,0,0.1,0,0.2c0,0,0,0,0,0.1v0.1c0,0.2,0,0.3,0,0.5l0.1,41.2
	c0,0.4,0.1,0.8,0.2,1.1s0.3,0.5,0.6,0.6l2.9,1.7c-0.5-0.3-0.8-0.9-0.8-1.7L57.4,79c0-0.2,0-0.3,0-0.5c0,0,0-0.1,0-0.1
	c0-0.1,0-0.1,0-0.2c0,0,0-0.1,0-0.1c0,0,0-0.1,0-0.1c0-0.1,0-0.1,0.1-0.2c0,0,0-0.1,0-0.1c0-0.1,0-0.1,0.1-0.2c0,0,0-0.1,0-0.1
	l0.1-0.3c0,0,0,0,0,0c0-0.1,0.1-0.2,0.1-0.3c0,0,0-0.1,0-0.1c0-0.1,0.1-0.2,0.1-0.2c0,0,0,0,0,0c0.1-0.1,0.1-0.2,0.2-0.3
	c0,0,0-0.1,0.1-0.1c0-0.1,0.1-0.1,0.1-0.2c0,0,0.1-0.1,0.1-0.1c0-0.1,0.1-0.1,0.1-0.2c0,0,0.1-0.1,0.1-0.1c0,0,0.1-0.1,0.1-0.1
	c0.1-0.1,0.1-0.1,0.2-0.2c0,0,0.1-0.1,0.1-0.1c0.1-0.1,0.2-0.2,0.4-0.3c0,0,0,0,0.1-0.1c0.1-0.1,0.3-0.2,0.4-0.3l59.8-34.5
	c0.1-0.1,0.2-0.1,0.3-0.2c0,0,0.1,0,0.1,0l0.2-0.1c0,0,0.1,0,0.1,0c0,0,0.1,0,0.1,0c0,0,0.1,0,0.1,0h0.3c0.1,0,0.1,0,0.2,0
	c0,0,0,0,0,0c0.1,0,0.1,0,0.1,0c0,0,0,0,0,0c0.1,0,0.1,0.1,0.2,0.1L118.8,38.1L118.8,38.1z"/>
<path class="st3" d="M119.8,39.9c1.5-0.8,2.7-0.2,2.7,1.5l0.1,41.2c0,1.7-1.2,3.7-2.6,4.6l-59.8,34.5c-1.5,0.8-2.7,0.2-2.7-1.5
	L57.4,79c0-1.7,1.2-3.7,2.6-4.6C60.1,74.5,119.8,39.9,119.8,39.9z"/>
<path class="st4" d="M72.5,88.7c3.3-1.9,6-0.4,6,3.3v0.4c0,1.5-2.7,3.1-6,5l-3.9,2.2c-3.3,1.9-6,3.5-6,1.9v-0.4
	c0-3.8,2.7-8.3,6-10.3C68.7,91,72.5,88.7,72.5,88.7z"/>
<path class="st5" d="M63.4,102.9c0,0.2,0.1,0.4,0.1,0.4c0,0,0.1,0.1,0.1,0.1l2.1,1.2c-0.2-0.1-0.3-0.3-0.3-0.5v-0.4l-2.1-1.2
	C63.4,102.4,63.4,102.9,63.4,102.9z"/>
<path class="st5" d="M77.6,89.6C77.6,89.6,77.6,89.5,77.6,89.6c-0.1-0.1-0.2-0.1-0.3-0.2c0,0,0,0-0.1,0c0,0-0.1,0-0.1,0
	c-0.1,0-0.1,0-0.2-0.1c-0.1,0-0.1,0-0.2,0c0,0-0.1,0-0.1,0c0,0,0,0-0.1,0c-0.1,0-0.2,0-0.4,0h-0.4c0,0-0.1,0-0.1,0
	c-0.1,0-0.1,0-0.2,0c-0.1,0-0.1,0-0.2,0c-0.1,0-0.1,0-0.2,0c-0.1,0-0.2,0-0.3,0.1c0,0-0.1,0-0.1,0c-0.1,0-0.2,0.1-0.3,0.1h0
	c-0.1,0-0.3,0.1-0.4,0.1c-0.1,0-0.1,0-0.2,0.1c0,0-0.1,0-0.1,0.1c-0.2,0.1-0.4,0.2-0.6,0.3l-3.9,2.2c-0.2,0.1-0.4,0.2-0.6,0.4
	c-0.1,0-0.1,0.1-0.2,0.1c-0.1,0.1-0.3,0.2-0.4,0.3c-0.1,0.1-0.1,0.1-0.2,0.2c-0.1,0.1-0.2,0.2-0.3,0.3c-0.1,0.1-0.1,0.1-0.2,0.2
	c0,0-0.1,0.1-0.1,0.1l-0.1,0.1c-0.1,0.1-0.3,0.3-0.4,0.4l-0.1,0.1c0,0-0.1,0.1-0.1,0.1l-0.2,0.3c-0.1,0.1-0.1,0.1-0.2,0.2
	c0,0-0.1,0.1-0.1,0.1c-0.1,0.1-0.1,0.2-0.2,0.2c0,0.1-0.1,0.1-0.1,0.2c-0.1,0.1-0.1,0.1-0.2,0.2c0,0.1-0.1,0.1-0.1,0.2
	c0,0,0,0.1-0.1,0.1c-0.1,0.2-0.2,0.3-0.3,0.5v0c-0.1,0.2-0.2,0.3-0.3,0.5c0,0,0,0.1-0.1,0.1c0,0.1-0.1,0.1-0.1,0.2
	c0,0.1-0.1,0.1-0.1,0.2c-0.1,0.1-0.1,0.2-0.2,0.3c0,0,0,0.1-0.1,0.1c0,0,0,0,0,0.1c-0.1,0.2-0.2,0.4-0.2,0.5c0,0,0,0,0,0.1L64.2,99
	c0,0.1-0.1,0.2-0.1,0.3L64,99.5c0,0.1-0.1,0.2-0.1,0.2l-0.1,0.2c0,0.1,0,0.2-0.1,0.3c0,0.1-0.1,0.2-0.1,0.3c0,0,0,0.1,0,0.1
	c0,0.1,0,0.1,0,0.2c0,0.2-0.1,0.3-0.1,0.4c0,0,0,0.1,0,0.1c0,0.1,0,0.2,0,0.3s0,0.1,0,0.2c0,0.2,0,0.4,0,0.6l2.1,1.2
	c0-0.2,0-0.4,0-0.6c0-0.1,0-0.1,0-0.2c0-0.1,0-0.3,0.1-0.4c0-0.2,0-0.3,0.1-0.4c0-0.1,0-0.2,0.1-0.3s0-0.2,0.1-0.3
	c0-0.1,0.1-0.3,0.1-0.4c0-0.1,0-0.2,0.1-0.2c0.1-0.2,0.1-0.3,0.2-0.5l0.1-0.2c0.1-0.2,0.2-0.4,0.3-0.6c0,0,0-0.1,0.1-0.1
	c0.1-0.2,0.2-0.4,0.3-0.5c0-0.1,0.1-0.1,0.1-0.2c0.1-0.2,0.2-0.4,0.4-0.6v0c0.1-0.2,0.2-0.4,0.4-0.6c0-0.1,0.1-0.1,0.1-0.2l0.3-0.4
	l0.2-0.2c0.1-0.1,0.2-0.2,0.3-0.3l0.2-0.3c0.1-0.1,0.1-0.2,0.2-0.2c0.1-0.2,0.3-0.3,0.4-0.4l0.3-0.3c0.1-0.1,0.1-0.1,0.2-0.2
	c0.1-0.1,0.2-0.2,0.3-0.3c0.1-0.1,0.1-0.1,0.2-0.2c0.1-0.1,0.3-0.2,0.4-0.3c0.1,0,0.1-0.1,0.2-0.1c0.2-0.1,0.4-0.3,0.6-0.4l3.9-2.2
	c0.2-0.1,0.4-0.2,0.6-0.3c0,0,0.1,0,0.1-0.1c0.2-0.1,0.4-0.2,0.5-0.2h0c0.2-0.1,0.3-0.1,0.4-0.1c0.1,0,0.2,0,0.3-0.1
	c0.1,0,0.2,0,0.3-0.1c0.1,0,0.1,0,0.2,0c0.1,0,0.3,0,0.4,0h0.1c0.2,0,0.3,0,0.4,0.1c0,0,0.1,0,0.1,0c0.1,0,0.2,0.1,0.3,0.1
	c0,0,0.1,0,0.1,0c0.1,0.1,0.3,0.1,0.4,0.2L77.6,89.6L77.6,89.6z"/>
<path class="st4" d="M69.9,78.7c2.6-1.5,4.6-0.3,4.7,2.6s-2.1,6.4-4.6,7.9s-4.6,0.3-4.7-2.6C65.2,83.7,67.3,80.2,69.9,78.7z"/>
<path class="st6" d="M75.4,91.2c3.3-1.9,6-0.4,6,3.3v0.4c0,1.5-2.7,3.1-6,5l-3.9,2.2c-3.3,1.9-6,3.5-6,1.9v-0.4
	c0-3.8,2.7-8.3,6-10.3L75.4,91.2L75.4,91.2z"/>
<path class="st5" d="M74.2,79.7C74.2,79.7,74.2,79.7,74.2,79.7c0.1,0,0.3-0.1,0.4-0.1c0.1,0,0.1,0,0.2,0c0.1,0,0.2,0,0.3,0
	c0,0,0.1,0,0.1,0h0.4c0.1,0,0.2,0,0.4,0c0,0,0.1,0,0.1,0c0.1,0,0.2,0,0.3,0.1c0,0,0.1,0,0.1,0c0.1,0,0.2,0.1,0.3,0.1l-2.1-1.2
	c0,0,0,0,0,0l-0.2-0.1c0,0,0,0,0,0c0,0-0.1,0-0.1,0c0,0-0.1,0-0.1,0c0,0-0.1,0-0.1,0c0,0-0.1,0-0.1,0h0c-0.1,0-0.2,0-0.3,0H73
	c0,0-0.1,0-0.1,0c0,0-0.1,0-0.1,0c0,0-0.1,0-0.1,0c-0.1,0-0.1,0-0.2,0c0,0-0.1,0-0.1,0c-0.1,0-0.2,0-0.3,0.1h0
	c-0.1,0-0.2,0.1-0.3,0.1l-0.1,0.1l-0.1,0.1c-0.1,0.1-0.3,0.1-0.4,0.2c-0.2,0.1-0.3,0.2-0.4,0.3c0,0-0.1,0.1-0.1,0.1
	c-0.1,0.1-0.2,0.1-0.3,0.2c-0.1,0-0.1,0.1-0.2,0.1c-0.1,0.1-0.2,0.2-0.3,0.2c-0.1,0.1-0.1,0.1-0.2,0.2c0,0-0.1,0.1-0.1,0.1l-0.1,0.1
	c-0.1,0.1-0.2,0.2-0.3,0.4c0,0-0.1,0.1-0.1,0.1c0,0,0,0.1-0.1,0.1c-0.1,0.1-0.1,0.1-0.2,0.2c0,0.1-0.1,0.1-0.1,0.2
	c0,0,0,0.1-0.1,0.1c0,0.1-0.1,0.1-0.1,0.2c0,0.1-0.1,0.1-0.1,0.1l-0.1,0.2c0,0.1-0.1,0.1-0.1,0.2c0,0,0,0.1-0.1,0.1
	c-0.1,0.1-0.2,0.3-0.2,0.4c-0.1,0.1-0.1,0.3-0.2,0.4c0,0,0,0.1-0.1,0.1c0,0,0,0.1-0.1,0.1c0,0.1-0.1,0.1-0.1,0.2
	c0,0.1-0.1,0.2-0.1,0.3c0,0,0,0.1,0,0.1c0,0,0,0,0,0l-0.2,0.4c0,0,0,0,0,0.1c0,0,0,0.1,0,0.1c0,0.1-0.1,0.2-0.1,0.3c0,0,0,0.1,0,0.1
	c0,0.1,0,0.1-0.1,0.2c0,0,0,0.1,0,0.1c0,0.1,0,0.1,0,0.2l-0.1,0.2c0,0,0,0.1,0,0.1c0,0.1,0,0.1,0,0.2l-0.1,0.4c0,0,0,0.1,0,0.1
	c0,0.1,0,0.1,0,0.2c0,0.1,0,0.1,0,0.2c0,0.2,0,0.3,0,0.5c0,1.4,0.5,2.4,1.3,2.9l2.1,1.2c-0.8-0.5-1.3-1.5-1.3-2.9c0-0.2,0-0.3,0-0.5
	c0-0.1,0-0.1,0-0.2c0-0.1,0-0.2,0-0.3l0.1-0.4c0-0.1,0-0.2,0.1-0.3l0.1-0.2c0-0.1,0.1-0.2,0.1-0.3c0-0.1,0-0.1,0.1-0.2
	c0-0.1,0.1-0.3,0.1-0.4c0,0,0-0.1,0-0.1c0.1-0.2,0.1-0.3,0.2-0.5c0,0,0-0.1,0-0.1c0.1-0.1,0.1-0.3,0.2-0.4c0,0,0-0.1,0.1-0.1
	c0.1-0.2,0.2-0.3,0.3-0.5l0.3-0.5c0-0.1,0.1-0.1,0.1-0.2c0.1-0.1,0.1-0.2,0.2-0.3c0-0.1,0.1-0.1,0.1-0.2c0.1-0.1,0.1-0.2,0.2-0.3
	c0.1-0.1,0.1-0.2,0.2-0.2c0.1-0.1,0.1-0.1,0.2-0.2c0.1-0.1,0.2-0.2,0.3-0.4l0.2-0.2l0.2-0.2c0.1-0.1,0.2-0.2,0.3-0.2
	c0.1,0,0.1-0.1,0.2-0.1c0.1-0.1,0.2-0.2,0.3-0.2c0,0,0.1-0.1,0.1-0.1c0.2-0.1,0.3-0.2,0.4-0.3c0.1-0.1,0.3-0.2,0.4-0.2l0.1-0.1
	C73.9,79.8,74,79.8,74.2,79.7L74.2,79.7z"/>
<path class="st6" d="M73.2,80.2c2.6-1.5,4.6-0.3,4.7,2.6c0,2.9-2.1,6.4-4.6,7.9c-2.6,1.5-4.6,0.3-4.7-2.6
	C68.6,85.2,70.6,81.7,73.2,80.2z"/>
<path class="st4" d="M113.8,51.7c0.9-0.5,1.7-0.1,1.7,1s-0.7,2.4-1.7,2.9L87.3,70.9c-0.9,0.5-1.7,0.1-1.7-1s0.7-2.4,1.7-2.9
	C87.3,67,113.8,51.7,113.8,51.7z M113.4,64c0.9-0.5,1.7-0.1,1.7,1c0,1.1-0.7,2.4-1.7,2.9L86.9,83.2c-0.9,0.5-1.7,0.1-1.7-1
	s0.7-2.4,1.7-2.9C86.9,79.3,113.4,64,113.4,64z"/>
<path class="st5" d="M115.5,53C115.5,53,115.5,53,115.5,53C115.5,53,115.4,52.9,115.5,53l-0.1,0c0,0,0,0,0,0c0,0,0,0,0,0
	c0,0,0,0,0,0h0h0c0,0-0.1,0-0.1,0H115h-0.2c0,0,0,0-0.1,0h0c0,0,0,0,0,0c0,0-0.1,0-0.1,0c0,0,0,0,0,0c0,0,0,0,0,0
	c-0.1,0-0.1,0.1-0.2,0.1L87.8,68.4c-0.1,0.1-0.2,0.1-0.3,0.2c0,0-0.1,0.1-0.1,0.1c0,0-0.1,0.1-0.1,0.1c0,0,0,0-0.1,0.1L87.2,69
	L87.1,69c0,0.1-0.1,0.1-0.1,0.2c0,0,0,0,0,0.1s0,0,0,0c0,0,0,0,0,0.1c0,0-0.1,0.1-0.1,0.1c0,0-0.1,0.1-0.1,0.1v0l-0.1,0.1
	c0,0-0.1,0.1-0.1,0.1c0,0,0,0.1-0.1,0.1c0,0.1,0,0.1-0.1,0.2c0,0.1,0,0.1-0.1,0.2c0,0,0,0.1,0,0.1c0,0,0,0,0,0c0,0,0,0,0,0.1
	c0,0.1,0,0.1,0,0.2c0,0,0,0.1,0,0.1c0,0,0,0,0,0.1c0,0,0,0,0,0.1c0,0.1,0,0.2,0,0.3c0,0.3,0,0.5,0.1,0.7c0.1,0.2,0.2,0.3,0.4,0.4
	l2.1,1.2c-0.3-0.2-0.5-0.5-0.5-1.1c0-0.1,0-0.3,0-0.4c0,0,0,0,0-0.1c0-0.1,0-0.2,0.1-0.4c0,0,0,0,0,0c0-0.1,0.1-0.3,0.1-0.4
	c0.1-0.1,0.1-0.3,0.2-0.4v0l0.2-0.4c0,0,0,0,0,0c0.1-0.1,0.2-0.2,0.3-0.3l0.1-0.1c0.1-0.1,0.1-0.1,0.2-0.2c0,0,0.1-0.1,0.1-0.1
	c0.1-0.1,0.2-0.2,0.3-0.2l26.4-15.3c0.1,0,0.1-0.1,0.2-0.1c0,0,0,0,0.1,0c0,0,0.1,0,0.1,0c0,0,0.1,0,0.1,0c0,0,0,0,0.1,0
	c0,0,0.1,0,0.1,0h0.2c0,0,0.1,0,0.1,0h0c0,0,0.1,0,0.1,0c0,0,0,0,0,0l0.1,0.1L115.5,53L115.5,53z"/>
<path class="st6" d="M116.4,54.3c0.9-0.5,1.7-0.1,1.7,1c0,1.1-0.7,2.4-1.7,2.9L89.9,73.5c-0.9,0.5-1.7,0.1-1.7-1s0.7-2.4,1.7-2.9
	L116.4,54.3z"/>
<path class="st5" d="M115.5,65C115.5,65,115.5,65,115.5,65C115.5,65,115.4,65,115.5,65l-0.1,0c0,0,0,0,0,0c0,0,0,0,0,0c0,0,0,0,0,0
	h0h0c0,0-0.1,0-0.1,0H115h-0.2c0,0,0,0-0.1,0h0c0,0,0,0,0,0c0,0-0.1,0-0.1,0c0,0,0,0,0,0c0,0,0,0,0,0c-0.1,0-0.1,0.1-0.2,0.1
	L87.8,80.4c-0.1,0.1-0.2,0.1-0.3,0.2c0,0-0.1,0.1-0.1,0.1c0,0-0.1,0.1-0.1,0.1c0,0,0,0-0.1,0.1L87.2,81L87.1,81
	c0,0.1-0.1,0.1-0.1,0.2c0,0,0,0,0,0.1s0,0,0,0c0,0,0,0,0,0.1c0,0-0.1,0.1-0.1,0.1c0,0-0.1,0.1-0.1,0.1v0l-0.1,0.1
	c0,0-0.1,0.1-0.1,0.1c0,0,0,0.1-0.1,0.1v0c0,0.1,0,0.1-0.1,0.2c0,0.1,0,0.1-0.1,0.2c0,0,0,0.1,0,0.1s0,0,0,0c0,0,0,0,0,0.1
	c0,0.1,0,0.1,0,0.2c0,0,0,0.1,0,0.1c0,0,0,0,0,0.1c0,0,0,0,0,0.1c0,0.1,0,0.2,0,0.3c0,0.5,0.2,0.9,0.5,1.1l2.1,1.2
	c-0.3-0.2-0.5-0.5-0.5-1.1c0-0.1,0-0.3,0-0.4c0,0,0,0,0-0.1c0-0.1,0-0.2,0.1-0.4c0,0,0,0,0,0c0-0.1,0.1-0.3,0.1-0.4
	c0.1-0.1,0.1-0.3,0.2-0.4v0l0.2-0.4c0,0,0,0,0,0c0.1-0.1,0.2-0.2,0.3-0.3l0.1-0.1c0.1-0.1,0.1-0.1,0.2-0.2c0,0,0.1-0.1,0.1-0.1
	c0.1-0.1,0.2-0.2,0.3-0.2l26.4-15.4c0.1,0,0.1-0.1,0.2-0.1c0,0,0,0,0.1,0c0,0,0.1,0,0.1,0c0,0,0.1,0,0.1,0c0,0,0,0,0.1,0
	c0,0,0.1,0,0.1,0h0.2c0,0,0.1,0,0.1,0h0c0,0,0.1,0,0.1,0c0,0,0,0,0,0l0.1,0.1L115.5,65L115.5,65z"/>
<path class="st6" d="M116.4,66.3c0.9-0.5,1.7-0.1,1.7,1s-0.7,2.4-1.7,2.9L89.9,85.5c-0.9,0.5-1.7,0.1-1.7-1s0.7-2.4,1.7-2.9
	L116.4,66.3z"/>
<path class="st4" d="M101.8,83.2c0.9-0.5,1.7-0.1,1.7,1c0,1.1-0.7,2.4-1.7,2.9l-14.9,8.6c-0.9,0.5-1.7,0.1-1.7-1
	c0-1.1,0.7-2.4,1.7-2.9L101.8,83.2L101.8,83.2z"/>
<path class="st5" d="M106.1,85.1l-2.1-1.2c0,0-0.1,0-0.1,0h0c0,0,0,0,0,0c0,0,0,0,0,0s0,0,0,0h0h0c0,0-0.1,0-0.1,0h-0.1h-0.2
	c0,0,0,0-0.1,0h0c0,0,0,0,0,0c0,0-0.1,0-0.1,0c0,0,0,0,0,0c0,0,0,0,0,0c-0.1,0-0.1,0.1-0.2,0.1l-14.9,8.6l2.1,1.2l14.9-8.6
	c0.1,0,0.1-0.1,0.2-0.1c0,0,0,0,0.1,0c0,0,0.1,0,0.1,0c0,0,0.1,0,0.1,0c0,0,0,0,0.1,0c0,0,0.1,0,0.1,0h0.2c0,0,0.1,0,0.1,0h0
	C105.9,85,106,85,106.1,85.1C106,85,106,85,106.1,85.1C106,85.1,106,85.1,106.1,85.1z M87.6,92.8C87.5,92.9,87.5,92.9,87.6,92.8
	c-0.2,0.1-0.2,0.2-0.2,0.2c0,0,0,0-0.1,0.1l-0.1,0.1l-0.1,0.1c0,0.1-0.1,0.1-0.1,0.2c0,0,0,0,0,0.1c0,0,0,0,0,0c0,0,0,0,0,0.1
	c0,0-0.1,0.1-0.1,0.1c0,0-0.1,0.1-0.1,0.1v0L86.7,94c0,0-0.1,0.1-0.1,0.1s0,0.1-0.1,0.1s0,0.1-0.1,0.2c0,0.1,0,0.1-0.1,0.2
	c0,0,0,0.1,0,0.1c0,0,0,0,0,0c0,0,0,0,0,0.1c0,0.1,0,0.1,0,0.2c0,0,0,0.1,0,0.1c0,0,0,0,0,0.1v0.1c0,0.1,0,0.2,0,0.3
	c0,0.5,0.2,0.9,0.5,1.1l2.1,1.2c-0.3-0.2-0.5-0.5-0.5-1.1c0-0.1,0-0.3,0-0.4c0,0,0,0,0-0.1c0-0.1,0-0.2,0.1-0.4c0,0,0,0,0,0
	c0-0.1,0.1-0.3,0.1-0.4c0.1-0.1,0.1-0.3,0.2-0.4v0l0.2-0.4c0,0,0,0,0,0c0.1-0.1,0.2-0.2,0.3-0.3l0.1-0.1c0.1-0.1,0.1-0.1,0.2-0.2
	c0,0,0.1-0.1,0.1-0.1c0.1-0.1,0.2-0.2,0.3-0.2L88,92.6C87.8,92.7,87.7,92.7,87.6,92.8z"/>
<path class="st6" d="M104.9,85.2c0.9-0.5,1.7-0.1,1.7,1s-0.7,2.4-1.7,2.9L90,97.7c-0.9,0.5-1.7,0.1-1.7-1c0-1.1,0.7-2.4,1.7-2.9
	L104.9,85.2L104.9,85.2z"/>
<path class="st7" d="M146.7,88.8l-2.9-1.7c0,0,0,0,0.1,0L146.7,88.8C146.7,88.8,146.7,88.8,146.7,88.8"/>
<path class="st8" d="M146.7,88.8l-2.9-1.7l0.1,0.1l2.9,1.7L146.7,88.8"/>
<path class="st9" d="M146.8,88.8l-2.9-1.7h0L146.8,88.8"/>
<path class="st10" d="M124.9,119.8l-2.9-1.7c-0.1-0.1-0.2-0.2-0.3-0.2l2.9,1.7C124.7,119.6,124.8,119.7,124.9,119.8"/>
<path class="st9" d="M143,86.6l-2.9-1.7l3.7,2.1l2.9,1.7L143,86.6z"/>
<path class="st11" d="M139.3,77.3C139.2,77.3,139.2,77.3,139.3,77.3c-0.1-0.1-0.1-0.1-0.2-0.1c0,0,0,0,0,0c0,0,0,0,0,0
	c0,0-0.1,0-0.1,0h0c-0.1,0-0.1,0-0.2,0h-0.4c0,0-0.1,0-0.1,0c0,0-0.1,0-0.1,0h0c0,0-0.1,0-0.1,0c-0.1,0-0.1,0-0.2,0.1c0,0,0,0-0.1,0
	c0,0-0.1,0-0.1,0s-0.1,0-0.1,0c-0.1,0-0.2,0.1-0.3,0.1l-3.9,2.2c-0.1,0.1-0.3,0.1-0.4,0.2c0,0,0,0,0,0c-0.1,0-0.2,0.1-0.3,0.1
	c0,0-0.1,0-0.1,0c0,0-0.1,0-0.1,0c-0.1,0-0.1,0-0.2,0h-0.2c-0.1,0-0.1,0-0.2,0h0c-0.1,0-0.1,0-0.2-0.1l2.9,1.7h0c0,0,0.1,0,0.1,0
	c0,0,0,0,0,0h0c0,0,0.1,0,0.1,0h0.3c0.1,0,0.1,0,0.2,0h0c0,0,0.1,0,0.1,0c0,0,0.1,0,0.1,0h0c0.1,0,0.2-0.1,0.3-0.1h0c0,0,0,0,0,0
	c0.1-0.1,0.3-0.1,0.4-0.2l3.9-2.2c0.1-0.1,0.2-0.1,0.3-0.1c0,0,0.1,0,0.1,0c0.1,0,0.1,0,0.2-0.1c0.1,0,0.2-0.1,0.2-0.1
	c0,0,0.1,0,0.1,0c0,0,0.1,0,0.1,0c0,0,0.1,0,0.1,0h0.3c0.1,0,0.1,0,0.2,0h0c0.1,0,0.1,0,0.2,0c0,0,0,0,0,0c0.1,0,0.1,0.1,0.2,0.1
	L139.3,77.3L139.3,77.3z M116.4,120.5l0-4.5c0-0.8-0.4-1.3-0.9-1.6l-2.9-1.7c0.4,0.3,0.9,0.8,0.9,1.6l1.9,1.1l-1.9-1.1l0,4.5
	c0,0.6,0.1,1,0.3,1.4c0.1,0.2,0.3,0.4,0.4,0.4l2.9,1.7C116.7,122,116.4,121.4,116.4,120.5L116.4,120.5z"/>
<path class="st12" d="M129.7,80.1c0.7-0.4,1.4-0.5,2-0.1l2.8,1.6c0.5,0.5,1.2,0.4,1.8,0l3.9-2.2c1.6-0.9,2.8-0.3,2.8,1.6l0,5.8
	l3.7,2.1c1.2,0.4,1.2,2.5-0.2,4.6l-2.8,4.8c-0.7,0.9-0.9,1.9-0.9,2.6l0,4.5c0,1.9-1.1,3.8-2.8,4.8l-3.9,2.2
	c-0.7,0.4-1.4,1.3-1.8,2.1l-2.8,4.7c-0.6,1-1.3,1.7-2,2.1c-0.7,0.4-1.4,0.5-2,0.1l-2.8-1.6c-0.5-0.5-1.2-0.4-1.8,0l-3.9,2.3
	c-1.6,0.9-2.8,0.3-2.8-1.6l0-4.5c0-0.8-0.5-1.3-0.9-1.6l-2.8-1.6c-1.2-0.7-1.2-2.5,0-4.5l2.8-5c0.7-0.9,0.9-1.9,0.9-2.6l0-4.5
	c0-1.9,1.1-3.8,2.8-4.8l3.9-2.2c0.7-0.4,1.4-1.3,2.1-2.2l2.8-4.8C128.3,81.2,129,80.5,129.7,80.1L129.7,80.1z"/>
<path class="st11" d="M135.1,89.1l0.4,0.8c-3.9,6.6-7.1,14.5-8.1,18.1l-5.9-3.7l1.5-2.3l3.4,1.2C127.8,100.4,130.9,94.7,135.1,89.1z
	 M131.5,79.8l-2.8-1.6c-0.1,0-0.1-0.1-0.2-0.1c0,0,0,0,0,0c0,0,0,0-0.1,0c0,0-0.1,0-0.1,0c0,0-0.1,0-0.1,0c0,0,0,0-0.1,0h0
	c-0.1,0-0.1,0-0.2,0h-0.4c0,0,0,0-0.1,0c0,0-0.1,0-0.1,0c0,0,0,0-0.1,0c0,0,0,0-0.1,0l-0.2,0.1c0,0,0,0-0.1,0c0,0,0,0,0,0
	c-0.1,0-0.2,0.1-0.3,0.2c-0.1,0-0.2,0.1-0.2,0.2c0,0-0.1,0-0.1,0.1c-0.1,0-0.1,0.1-0.2,0.1c0,0-0.1,0-0.1,0.1
	c-0.1,0-0.1,0.1-0.2,0.1l-0.1,0.1c0,0,0,0,0,0c0,0,0,0-0.1,0.1c-0.1,0.1-0.1,0.1-0.2,0.2l-0.1,0.1c0,0,0,0.1-0.1,0.1
	c0,0-0.1,0.1-0.1,0.1c0,0,0,0-0.1,0.1c0,0-0.1,0.1-0.1,0.1c0,0-0.1,0.1-0.1,0.1c0,0,0,0,0,0.1c0,0.1-0.1,0.1-0.1,0.2
	c0,0,0,0.1-0.1,0.1l0,0c-0.1,0.1-0.1,0.2-0.2,0.3c0,0,0,0,0,0l-2.8,4.8l-0.5,0.7c-0.1,0.1-0.1,0.1-0.2,0.2c0,0-0.1,0.1-0.1,0.1
	c-0.1,0.1-0.1,0.2-0.2,0.2l-0.1,0.1l0,0c-0.1,0.1-0.2,0.2-0.3,0.3l-0.1,0.1c-0.1,0.1-0.1,0.1-0.2,0.2c0,0-0.1,0.1-0.1,0.1
	c-0.1,0.1-0.2,0.2-0.3,0.2l-3.9,2.2c-0.2,0.1-0.3,0.2-0.5,0.3c0,0,0,0-0.1,0c-0.2,0.1-0.3,0.2-0.4,0.4l0,0c0,0,0,0,0,0
	c-0.1,0.1-0.1,0.1-0.2,0.2l-0.1,0.1l0,0c0,0-0.1,0.1-0.1,0.1c0,0-0.1,0.1-0.1,0.1c0,0,0,0,0,0c0,0,0,0.1-0.1,0.1c0,0,0,0.1-0.1,0.1
	c0,0,0,0.1-0.1,0.1c0,0,0,0.1-0.1,0.1s0,0,0,0c0,0.1-0.1,0.1-0.1,0.2v0c0,0,0,0,0,0c0,0.1-0.1,0.1-0.1,0.2c0,0,0,0.1,0,0.1
	c0,0,0,0,0,0.1c0,0,0,0,0,0.1c0,0.1-0.1,0.1-0.1,0.2v0c0,0,0,0,0,0.1c0,0.1,0,0.1-0.1,0.2c0,0,0,0.1,0,0.1c0,0,0,0.1,0,0.1
	c0,0,0,0,0,0.1l-0.1,0.2c0,0,0,0.1,0,0.1v0c0,0.1,0,0.1-0.1,0.2c0,0,0,0.1,0,0.1v0c0,0,0,0,0,0.1c0,0.1,0,0.2-0.1,0.3V94
	c0,0.2,0,0.4,0,0.6l0,4.5c0,0.2,0,0.3,0,0.5v0.1c0,0.1,0,0.1,0,0.2c0,0.1,0,0.1,0,0.2c0,0,0,0.1,0,0.1l-0.1,0.2c0,0,0,0,0,0.1
	c0,0.1-0.1,0.2-0.1,0.3c0,0,0,0,0,0c0,0.1-0.1,0.2-0.1,0.3c0,0,0,0,0,0c-0.1,0.1-0.1,0.2-0.2,0.3c0,0,0,0,0,0
	c-0.1,0.1-0.1,0.2-0.2,0.3l-2.8,5c0,0.1-0.1,0.2-0.1,0.3c0,0,0,0.1,0,0.1c0,0,0,0.1-0.1,0.1c0,0,0,0.1-0.1,0.1c0,0.1,0,0.1-0.1,0.2
	c0,0,0,0.1,0,0.1c0,0,0,0,0,0c0,0.1-0.1,0.2-0.1,0.3v0c0,0,0,0.1,0,0.1l-0.1,0.2c0,0,0,0.1,0,0.1c0,0,0,0.1,0,0.1c0,0,0,0.1,0,0.1
	c0,0,0,0.1,0,0.1c0,0,0,0.1,0,0.1c0,0,0,0,0,0.1c0,0,0,0.1,0,0.1c0,0.1,0,0.1,0,0.2c0,0,0,0,0,0.1v0.1c0,0.1,0,0.2,0,0.2v0.4
	c0,0.1,0,0.2,0,0.3v0c0,0.1,0,0.2,0.1,0.3c0,0,0,0.1,0,0.1c0,0.1,0.1,0.1,0.1,0.2c0,0,0,0.1,0.1,0.1c0,0.1,0.1,0.1,0.1,0.1
	c0,0,0,0.1,0.1,0.1c0,0,0.1,0.1,0.1,0.1l0.1,0.1c0.1,0.1,0.1,0.1,0.2,0.2l2.9,1.7c-0.1,0-0.2-0.1-0.2-0.2l-0.1-0.1l-0.1-0.1
	c0,0,0-0.1-0.1-0.1c0,0-0.1-0.1-0.1-0.1c0,0,0-0.1-0.1-0.1c0-0.1-0.1-0.1-0.1-0.2c0,0,0-0.1,0-0.1c0-0.1-0.1-0.2-0.1-0.3v0
	c0-0.1,0-0.2,0-0.3v-0.1V111v-0.1c0-0.1,0-0.2,0-0.2c0,0,0-0.1,0-0.1c0-0.1,0-0.1,0-0.2c0-0.1,0-0.1,0-0.2c0,0,0-0.1,0-0.1
	c0-0.1,0-0.1,0.1-0.2c0,0,0-0.1,0-0.1c0-0.1,0.1-0.2,0.1-0.2c0,0,0,0,0-0.1c0-0.1,0.1-0.2,0.1-0.3c0,0,0-0.1,0-0.1
	c0-0.1,0.1-0.2,0.1-0.3c0,0,0-0.1,0.1-0.1c0.1-0.1,0.1-0.2,0.2-0.3l-1.9-1.1l1.9,1.1l2.8-5c0,0,0.1-0.1,0.1-0.1l0.1-0.2c0,0,0,0,0,0
	s0,0,0,0c0,0,0-0.1,0.1-0.1c0-0.1,0.1-0.1,0.1-0.2c0,0,0,0,0,0s0,0,0,0c0,0,0-0.1,0-0.1c0-0.1,0.1-0.1,0.1-0.2c0,0,0,0,0-0.1
	c0,0,0,0,0,0c0,0,0-0.1,0-0.1l0.1-0.2c0,0,0,0,0,0c0,0,0,0,0-0.1c0,0,0-0.1,0-0.1c0,0,0-0.1,0-0.1c0,0,0-0.1,0-0.1v0
	c0,0,0-0.1,0-0.1c0-0.1,0-0.1,0-0.2v0v-0.1c0-0.2,0-0.3,0-0.5l0-4.5c0-0.2,0-0.4,0-0.6v-0.1c0-0.1,0-0.2,0.1-0.3c0,0,0-0.1,0-0.1
	c0,0,0-0.1,0-0.1l0.1-0.2c0,0,0-0.1,0-0.1c0-0.1,0-0.2,0.1-0.2c0,0,0-0.1,0-0.1c0-0.1,0.1-0.2,0.1-0.3c0,0,0,0,0,0
	c0-0.1,0.1-0.2,0.1-0.3c0,0,0,0,0-0.1c0-0.1,0.1-0.2,0.1-0.3c0,0,0,0,0,0c0.1-0.1,0.1-0.2,0.2-0.3c0,0,0-0.1,0.1-0.1
	c0-0.1,0.1-0.1,0.1-0.2c0,0,0-0.1,0.1-0.1c0-0.1,0.1-0.1,0.1-0.2c0,0,0.1-0.1,0.1-0.1c0,0,0.1-0.1,0.1-0.1c0.1-0.1,0.1-0.1,0.2-0.2
	l0.1-0.1c0.1-0.1,0.3-0.3,0.4-0.4c0,0,0,0,0.1,0c0.2-0.1,0.3-0.2,0.5-0.3l3.9-2.2c0.1-0.1,0.2-0.1,0.3-0.2c0,0,0.1-0.1,0.1-0.1
	c0.1-0.1,0.1-0.1,0.2-0.2c0,0,0,0,0.1,0l0,0c0.1-0.1,0.2-0.2,0.3-0.3l0,0c0,0,0-0.1,0.1-0.1c0.1-0.1,0.1-0.1,0.2-0.2
	c0,0,0.1-0.1,0.1-0.1c0-0.1,0.1-0.1,0.1-0.2c0,0,0,0,0,0L125,87l2.8-4.8c0.1-0.1,0.1-0.2,0.2-0.3c0,0,0-0.1,0.1-0.1
	c0.1-0.1,0.1-0.2,0.2-0.2c0,0,0.1-0.1,0.1-0.1c0-0.1,0.1-0.1,0.1-0.2c0,0,0.1-0.1,0.1-0.1c0,0,0.1-0.1,0.1-0.1
	c0.1-0.1,0.1-0.1,0.2-0.2l0.1-0.1l0.1-0.1c0.1,0,0.1-0.1,0.2-0.1l0.1-0.1c0.1,0,0.1-0.1,0.2-0.1c0,0,0.1,0,0.1-0.1
	c0.1-0.1,0.2-0.1,0.2-0.2c0.1-0.1,0.2-0.1,0.3-0.2c0,0,0.1,0,0.1,0l0.2-0.1c0,0,0.1,0,0.1,0c0,0,0.1,0,0.1,0c0.1,0,0.1,0,0.2,0h0.3
	c0.1,0,0.1,0,0.2,0c0,0,0,0,0.1,0c0.1,0,0.1,0,0.2,0C131.4,79.9,131.5,79.9,131.5,79.8c0,0.1,0.1,0.1,0.1,0.1l2.8,1.6L131.5,79.8
	L131.5,79.8z"/>
<path class="st13" d="M129.2,104.4C129.2,104.3,129.2,104.3,129.2,104.4c0.2-0.3,0.3-0.5,0.4-0.7c0.1-0.1,0.1-0.3,0.2-0.4
	c0.1-0.1,0.1-0.2,0.2-0.4c0.1-0.1,0.2-0.3,0.2-0.4c0.1-0.1,0.1-0.3,0.2-0.4s0.2-0.3,0.2-0.4l0.2-0.4c0.1-0.1,0.2-0.3,0.3-0.4
	c0.1-0.1,0.2-0.3,0.3-0.4c0.1-0.1,0.1-0.2,0.2-0.3l0.4-0.6c0.1-0.1,0.1-0.2,0.2-0.3c0.1-0.2,0.2-0.4,0.3-0.5
	c0.1-0.1,0.2-0.2,0.2-0.4c0.1-0.2,0.2-0.4,0.4-0.5c0.1-0.1,0.2-0.3,0.2-0.4c0.1-0.1,0.2-0.3,0.3-0.4c0.3-0.4,0.5-0.9,0.8-1.3
	c0,0,0.1-0.1,0.1-0.1c0.3-0.5,0.6-0.9,1-1.4c0.1-0.1,0.2-0.3,0.3-0.4c0.2-0.3,0.4-0.6,0.6-0.8c0.1-0.1,0.2-0.3,0.3-0.4
	c0.3-0.4,0.6-0.8,0.9-1.2l-2.1-1.2c-0.3,0.4-0.6,0.8-0.9,1.2c-0.1,0.1-0.2,0.3-0.3,0.4c-0.2,0.3-0.4,0.6-0.6,0.8
	c-0.1,0.1-0.1,0.1-0.2,0.2l-0.1,0.2c-0.3,0.5-0.6,0.9-1,1.4c0,0-0.1,0.1-0.1,0.1c-0.3,0.4-0.6,0.9-0.8,1.3l-0.1,0.2
	c0,0.1-0.1,0.1-0.1,0.2c-0.1,0.1-0.2,0.3-0.2,0.4c-0.1,0.2-0.2,0.4-0.4,0.5c-0.1,0.1-0.2,0.3-0.2,0.4c-0.1,0.2-0.2,0.4-0.3,0.5
	c-0.1,0.1-0.1,0.2-0.2,0.3l-0.4,0.6c-0.1,0.1-0.1,0.2-0.2,0.3c0,0,0,0,0,0.1c-0.1,0.1-0.1,0.3-0.2,0.4c-0.1,0.2-0.2,0.3-0.3,0.4
	l-0.2,0.4c-0.1,0.1-0.2,0.3-0.2,0.4c-0.1,0.1-0.1,0.3-0.2,0.4c-0.1,0.1-0.2,0.3-0.2,0.4c-0.1,0.1-0.1,0.2-0.2,0.4
	c-0.1,0.1-0.1,0.3-0.2,0.4c0,0,0,0,0,0.1c-0.1,0.2-0.2,0.4-0.3,0.5c0,0,0,0.1-0.1,0.1l-0.2,0.5c0,0,0,0.1-0.1,0.1
	c-0.1,0.2-0.2,0.3-0.3,0.5L123,103l-1.5,2.3l2.1,1.2l1.5-2.3l3.4,1.2c0.1-0.2,0.2-0.3,0.3-0.5c0,0,0-0.1,0.1-0.1
	C129,104.7,129.1,104.5,129.2,104.4L129.2,104.4z"/>
<path class="st14" d="M129.6,110.3l-2.1-1.2l-5.9-3.7l2.1,1.2L129.6,110.3z"/>
<path class="st6" d="M137.4,91.4l0.4,0.8c-3.9,6.6-7.1,14.5-8.1,18.1l-5.9-3.7l1.5-2.3l3.4,1.2C130,102.7,133.1,97,137.4,91.4z"/>
</svg>
